<?xml version="1.0" standalone="no"?>
<!DOCTYPE svg PUBLIC "-//W3C//DTD SVG 20010904//EN"
 "http://www.w3.org/TR/2001/REC-SVG-20010904/DTD/svg10.dtd">
<svg version="1.0" xmlns="http://www.w3.org/2000/svg"
 width="500.000000pt" height="500.000000pt" viewBox="0 0 500.000000 500.000000"
 preserveAspectRatio="xMidYMid meet">

<g transform="translate(0.000000,500.000000) scale(0.100000,-0.100000)"
fill="#000000" stroke="none">
<path d="M2412 4016 c-81 -45 -81 -166 0 -228 23 -17 23 -17 26 -322 l3 -305
35 16 34 17 0 293 c0 182 4 293 10 293 5 0 25 16 45 35 32 32 35 41 35 91 0
50 -3 59 -34 90 -29 29 -40 34 -82 34 -27 -1 -59 -6 -72 -14z"/>
<path d="M2105 3746 c-22 -7 -73 -30 -114 -52 -74 -38 -76 -39 -185 -39 -68 0
-111 -4 -113 -11 -5 -15 105 -118 152 -142 116 -58 254 -68 370 -26 39 14 90
29 115 32 39 6 45 10 48 34 2 17 -4 31 -17 40 -11 8 -35 41 -53 73 -18 32 -45
67 -59 77 -33 25 -94 31 -144 14z"/>
<path d="M2735 3753 c-40 -11 -67 -38 -95 -93 -16 -31 -35 -62 -44 -69 -9 -8
-16 -29 -16 -47 0 -29 4 -34 23 -34 13 0 57 -12 98 -27 62 -22 91 -26 184 -27
91 -1 120 3 167 21 74 29 124 61 171 109 61 63 54 70 -70 70 l-108 -1 -100 48
c-96 47 -165 63 -210 50z"/>
<path d="M2285 3429 c-63 -19 -95 -64 -95 -134 0 -51 22 -93 93 -179 l24 -30
37 23 36 23 -19 26 c-10 15 -29 36 -41 47 -27 25 -50 67 -50 95 0 31 35 60 73
60 32 0 32 1 29 40 -4 36 -7 40 -31 39 -14 0 -39 -5 -56 -10z"/>
<path d="M2587 3434 c-4 -4 -7 -22 -7 -41 0 -30 3 -33 30 -33 36 0 70 -31 70
-62 0 -62 -60 -116 -232 -209 -67 -36 -131 -78 -142 -92 -17 -23 -18 -31 -8
-66 15 -48 56 -85 145 -130 75 -38 152 -101 162 -131 13 -39 28 -21 22 25 -11
75 -29 99 -119 150 -101 58 -128 81 -128 112 0 21 15 31 105 73 58 27 125 65
151 84 60 46 112 113 120 154 10 50 -11 108 -49 136 -33 24 -107 43 -120 30z"/>
<path d="M2571 3006 c-18 -10 -23 -22 -25 -59 -2 -40 2 -49 26 -67 l27 -20 16
29 c24 47 18 131 -9 131 -6 -1 -22 -7 -35 -14z"/>
<path d="M2135 2849 c-346 -43 -508 -101 -692 -247 -83 -67 -172 -199 -213
-316 -11 -32 -25 -106 -31 -165 -10 -89 -9 -121 5 -198 9 -50 24 -113 35 -140
l19 -48 288 -2 289 -3 -40 24 c-189 114 -281 195 -332 295 -24 48 -28 67 -27
136 0 94 24 151 101 237 89 101 189 159 380 222 127 41 295 83 418 104 l50 8
-53 33 c-29 18 -57 41 -63 52 -11 21 -23 22 -134 8z"/>
<path d="M2625 2851 c-2 -5 2 -15 11 -22 33 -27 54 -87 54 -151 0 -51 -6 -73
-30 -114 -25 -45 -108 -130 -117 -121 -1 2 6 21 17 42 11 22 20 49 20 62 0 46
-32 104 -77 138 l-45 35 -25 -20 c-37 -29 -93 -107 -104 -143 -40 -141 82
-272 322 -345 35 -11 172 -45 304 -77 485 -115 644 -170 787 -271 l47 -33 8
47 c15 89 9 302 -11 367 -96 312 -347 511 -728 575 -68 12 -161 23 -208 26
-47 2 -115 6 -152 9 -37 2 -70 0 -73 -4z"/>
<path d="M2050 2042 l0 -59 48 -11 c26 -7 70 -18 97 -26 28 -7 74 -16 103 -20
l52 -7 0 91 0 90 -150 0 -150 0 0 -58z"/>
<path d="M1804 2045 c-14 -36 105 -241 190 -328 l45 -47 411 0 411 0 51 53
c50 51 108 157 108 197 0 26 -29 26 -82 -1 -163 -83 -550 -97 -799 -28 -83 23
-204 85 -263 136 -43 36 -63 41 -72 18z"/>
<path d="M2440 1971 c0 -60 2 -61 126 -61 l94 0 0 55 0 55 -110 0 -110 0 0
-49z"/>
<path d="M3641 1686 c-73 -118 -299 -228 -692 -336 -232 -64 -437 -134 -519
-176 l-65 -33 275 0 c306 -1 360 5 507 54 234 78 417 203 509 347 58 90 62
110 31 148 l-26 30 -20 -34z"/>
<path d="M3094 1629 c-22 -25 -77 -49 -111 -49 -13 0 -44 11 -70 24 -48 26
-65 25 -117 -9 -13 -9 -47 -18 -75 -22 -44 -5 -60 -2 -117 27 l-67 33 -56 -29
c-74 -38 -129 -38 -208 0 l-60 28 -49 -28 c-68 -40 -142 -40 -218 1 l-56 30
-51 -29 c-63 -35 -127 -38 -186 -7 -23 11 -44 25 -48 31 -10 16 -52 12 -59 -6
-11 -28 -7 -32 61 -64 85 -41 161 -44 233 -10 l49 23 53 -23 c70 -31 155 -31
223 -1 l51 22 49 -22 c69 -31 153 -30 224 1 l54 24 45 -25 c62 -32 168 -33
228 0 l41 21 44 -20 c63 -28 115 -25 186 10 69 35 86 51 77 74 -9 23 -47 20
-70 -5z"/>
<path d="M1552 1468 c-21 -21 -13 -35 41 -71 78 -54 158 -59 265 -16 28 12 36
11 69 -6 52 -28 204 -29 250 -1 31 19 32 19 75 0 31 -14 65 -19 128 -19 73 0
92 4 138 28 55 29 64 49 30 70 -13 8 -25 5 -56 -17 -60 -41 -133 -46 -207 -12
-70 32 -70 32 -137 1 -70 -33 -129 -33 -196 1 -57 28 -73 28 -160 -4 -66 -24
-116 -16 -176 28 -45 34 -47 35 -64 18z"/>
<path d="M2830 1466 c-18 -22 -5 -48 22 -44 17 2 23 10 23 28 0 29 -26 38 -45
16z"/>
<path d="M1848 1279 c-10 -5 -18 -21 -18 -34 0 -21 5 -25 29 -25 16 0 48 -9
72 -20 65 -29 170 -27 235 4 27 13 57 26 67 30 12 4 17 14 15 28 -4 29 -43 36
-68 13 -29 -26 -110 -47 -155 -39 -22 3 -61 17 -87 30 -52 26 -65 28 -90 13z"/>
</g>
</svg>
